<?xml version="1.0" standalone="no"?><!DOCTYPE svg PUBLIC "-//W3C//DTD SVG 1.1//EN" "http://www.w3.org/Graphics/SVG/1.1/DTD/svg11.dtd"><svg t="1746715438332" class="icon" viewBox="0 0 1049 1024" version="1.1" xmlns="http://www.w3.org/2000/svg" p-id="10209" xmlns:xlink="http://www.w3.org/1999/xlink" width="204.8828125" height="200"><path d="M537.472179 5.262443l171.601561 99.092794a39.234879 39.234879 0 0 1 19.628024 33.963439v130.485537l117.904245 68.062973a117.760588 117.760588 0 0 1 58.747979 96.930385l0.120974 5.020419v129.442137l124.542691 71.919018a39.27722 39.27722 0 0 1 19.628025 34.008805v198.125101c0 14.032979-7.470142 26.992315-19.628025 34.008804l-171.601561 99.077673a39.20766 39.20766 0 0 1-39.240928 0l-118.796428-68.592235-123.665629 71.420001a117.712199 117.712199 0 0 1-113.140896 2.51021l-4.59701-2.51021-116.709627-67.397617-111.810182 64.554729a39.20766 39.20766 0 0 1-39.240928 0L19.628025 906.321855A39.22127 39.22127 0 0 1 0 872.328173V674.203071c0-14.032979 7.470142-26.992315 19.628025-34.008804l110.615564-63.87425V438.833112c0-40.269207 20.595817-77.74089 54.589499-99.349864l4.309697-2.616062 117.874001-68.093217V138.318676c0.015122-14.017858 7.500385-26.977193 19.643147-33.978561L498.246372 5.262443a39.20766 39.20766 0 0 1 39.240928 0h-0.015121z m171.601561 365.190139l-171.601561 99.092794a39.20766 39.20766 0 0 1-39.240928 0L326.62969 370.452582c-5.897481-3.387271-10.796926-8.256473-14.244684-14.12371l-84.001293 48.510558a39.246977 39.246977 0 0 0-19.628025 33.97856v97.096724c7.591116-0.408287 15.136867 1.406322 21.714826 5.201881l171.601561 99.092794a39.246977 39.246977 0 0 1 19.628025 33.978561v198.125101c0 7.334046-2.041436 14.380779-5.731142 20.429478l82.277414 47.482278a39.20766 39.20766 0 0 0 39.240928 0l93.119705-53.757803a39.266635 39.266635 0 0 1-2.646305-14.123709V674.203071c0-14.032979 7.470142-26.992315 19.628025-34.008804l171.601561-99.077672a39.664337 39.664337 0 0 1 7.787698-3.417515v-98.896211c0-14.017858-7.485264-26.962071-19.628024-33.963439l-84.016415-48.540801a38.988395 38.988395 0 0 1-14.244684 14.153953h-0.015121z" p-id="10210" fill="#13227a"></path></svg>